HIERARCHY
ROOT Hips
{
	OFFSET -3.958830 18.904000 13.208200
	CHANNELS 6 Xposition Yposition Zposition Zrotation Yrotation Xrotation 
	JOINT LHipJoint
	{
		OFFSET 0.000000 0.000000 0.000000
		CHANNELS 3 Zrotation Yrotation Xrotation
		JOINT LeftUpLeg
		{
			OFFSET 1.800000 -1.400000 0.085000
			CHANNELS 3 Zrotation Yrotation Xrotation
			JOINT LeftLeg
			{
				OFFSET 2.215000 -6.000000 0.000000
				CHANNELS 3 Zrotation Yrotation Xrotation
				JOINT LeftFoot
				{
					OFFSET 2.500000 -6.900000 0.000000
					CHANNELS 3 Zrotation Yrotation Xrotation
					JOINT LeftToeBase
					{
						OFFSET 0.200000 -0.500000 1.950000
						CHANNELS 3 Zrotation Yrotation Xrotation
						End Site
						{
							OFFSET 0.000000 0.000000 0.000000
						}
					}
				}
			}
		}
	}
	JOINT RHipJoint
	{
		OFFSET 0.000000 0.000000 0.000000
		CHANNELS 3 Zrotation Yrotation Xrotation
		JOINT RightUpLeg
		{
			OFFSET -1.800000 -1.400000 0.085000
			CHANNELS 3 Zrotation Yrotation Xrotation
			JOINT RightLeg
			{
				OFFSET -2.215000 -6.000000 0.000000
				CHANNELS 3 Zrotation Yrotation Xrotation
				JOINT RightFoot
				{
					OFFSET -2.500000 -6.900000 0.000000
					CHANNELS 3 Zrotation Yrotation Xrotation
					JOINT RightToeBase
					{
						OFFSET -0.200000 -0.500000 1.950000
						CHANNELS 3 Zrotation Yrotation Xrotation
						End Site
						{
							OFFSET 0.000000 0.000000 0.000000
						}
					}
				}
			}
		}
	}
	JOINT LowerBack
	{
		OFFSET 0.000000 0.000000 0.000000
		CHANNELS 3 Zrotation Yrotation Xrotation
		JOINT Spine
		{
			OFFSET -0.087000 1.940000 -0.288900
			CHANNELS 3 Zrotation Yrotation Xrotation
			JOINT Spine1
			{
				OFFSET 0.000000 1.950000 0.060000
				CHANNELS 3 Zrotation Yrotation Xrotation
				JOINT Neck
				{
					OFFSET 0.000000 0.000000 0.000000
					CHANNELS 3 Zrotation Yrotation Xrotation
					JOINT Neck1
					{
						OFFSET 0.000000 1.600000 0.340000
						CHANNELS 3 Zrotation Yrotation Xrotation
						JOINT Head
						{
							OFFSET 0.000000 1.667000 -0.240000
							CHANNELS 3 Zrotation Yrotation Xrotation
							End Site
							{
								OFFSET 0.000000 0.000000 0.000000
							}
						}
					}
				}
				JOINT LeftShoulder
				{
					OFFSET 0.000000 0.000000 0.000000
					CHANNELS 3 Zrotation Yrotation Xrotation
					JOINT LeftArm
					{
						OFFSET 2.700000 1.550000 -0.730000
						CHANNELS 3 Zrotation Yrotation Xrotation
						JOINT LeftForeArm
						{
							OFFSET 5.450000 0.000000 0.000000
							CHANNELS 3 Zrotation Yrotation Xrotation
							JOINT LeftHand
							{
								OFFSET 3.450000 0.000000 0.000000
								CHANNELS 3 Zrotation Yrotation Xrotation
								JOINT LeftHandIndex1
								{
									OFFSET 0.750000 0.000000 0.000000
									CHANNELS 3 Zrotation Yrotation Xrotation
									End Site
									{
										OFFSET 0.000000 0.000000 0.000000
									}
								}
							}
						}
					}
				}
				JOINT RightShoulder
				{
					OFFSET 0.000000 0.000000 0.000000
					CHANNELS 3 Zrotation Yrotation Xrotation
					JOINT RightArm
					{
						OFFSET -2.700000 1.550000 -0.730000
						CHANNELS 3 Zrotation Yrotation Xrotation
						JOINT RightForeArm
						{
							OFFSET -5.450000 0.000000 0.000000
							CHANNELS 3 Zrotation Yrotation Xrotation
							JOINT RightHand
							{
								OFFSET -3.450000 0.000000 0.000000
								CHANNELS 3 Zrotation Yrotation Xrotation
								JOINT RightHandIndex1
								{
									OFFSET -0.750000 0.000000 0.000000
									CHANNELS 3 Zrotation Yrotation Xrotation
									End Site
									{
										OFFSET 0.000000 0.000000 0.000000
									}
								}
							}
						}
					}
				}
			}
		}
	}
}
MOTION
Frames: 7
Frame Time: 0.016667
-0.335010 17.356660 -3.417540 -0.068879 17.454266 -6.293981 -14.166067 11.382282 2.571187 0.893882 -0.950511 -6.296264 -9.577347 5.650542 11.539220 -0.660778 3.765348 3.304971 0.716050 0.748170 0.161200 19.220163 -12.579547 3.208857 -10.066868 4.027162 -13.828370 18.613501 -11.822118 30.498315 -1.060579 -6.421788 1.950940 0.519750 0.167180 0.089070 -6.817269 4.450945 -8.343856 26.326787 -3.966169 28.268563 -18.142892 1.233568 25.986849 5.473932 -8.517706 -11.238230 -13.969961 2.113538 44.532182 13.667580 -9.051810 -31.624190 -13.403323 -34.499440 12.509101 -10.695277 -6.261494 -9.175623 27.500069 -36.266536 -10.278580 -3.362344 3.011428 0.628570 -0.215970 0.185650 0.214730 6.410754 44.469802 0.902921 23.232980 51.165301 -2.675442 -16.723357 67.996134 -11.511599 1.959884 -0.515564 -0.080650 0.594960 0.051060 0.010460 
-0.326330 17.345640 -3.409320 0.137701 17.937136 -6.430547 -14.148148 11.289681 2.538599 0.852765 -0.881872 -5.862192 -9.912835 5.746998 11.447270 -0.645117 3.835151 3.290746 0.699810 0.731630 0.125080 19.260264 -12.590205 3.191977 -10.564895 4.120182 -14.013573 18.867036 -12.141456 31.199291 -1.068837 -6.583747 1.897248 0.518400 0.201000 0.085780 -6.914118 4.622091 -8.332227 26.705308 -4.070027 27.665227 -18.987761 1.247623 26.522594 5.630860 -8.967419 -11.173005 -14.778369 2.360111 44.039024 14.232950 -9.679790 -31.043630 -13.306379 -34.859562 13.077524 -10.610296 -6.487415 -8.121512 27.163295 -31.428417 -8.886797 -3.406913 3.031409 0.608820 -0.203460 0.159330 0.223820 6.119825 45.005817 0.353544 22.676027 50.834427 -2.029306 -22.910214 69.594957 -15.290042 1.998043 -0.364992 -0.087040 0.605990 0.066840 0.029370 
-0.317860 17.335910 -3.402600 0.334812 18.366488 -6.631877 -14.139853 11.225280 2.512318 0.826760 -0.803245 -5.421823 -10.201875 5.851556 11.423448 -0.627038 3.907259 3.273416 0.683960 0.714260 0.093640 19.287049 -12.590070 3.172476 -11.003699 4.183015 -14.061815 19.058373 -12.419269 31.799564 -1.077846 -6.722871 1.851427 0.514310 0.227270 0.083180 -6.977468 4.725733 -8.314776 26.929245 -4.186111 27.269645 -19.633293 1.256836 27.051275 5.736248 -9.341070 -11.213273 -15.514142 2.557563 43.649821 14.777730 -10.220880 -30.655270 -13.233769 -35.198127 13.575493 -10.644028 -6.644388 -7.277855 27.062671 -27.215157 -7.831589 -3.445152 3.043582 0.595530 -0.195810 0.139130 0.230430 5.916289 45.504218 0.013729 22.002667 50.459246 -1.680326 -29.494057 71.058287 -19.422746 2.028468 -0.209870 -0.092620 0.613870 0.080860 0.044670 
-0.309380 17.326360 -3.396780 0.485371 18.746305 -6.819072 -14.135416 11.182717 2.491745 0.821510 -0.733868 -5.071550 -10.443839 5.954559 11.460093 -0.607786 3.971844 3.257628 0.669940 0.696890 0.067330 19.305680 -12.583381 3.156540 -11.341128 4.256770 -14.088034 19.183437 -12.647608 32.344425 -1.086031 -6.838309 1.815074 0.507180 0.248010 0.081230 -7.023012 4.782549 -8.301874 27.107869 -4.308342 26.973303 -20.150157 1.257132 27.480228 5.786071 -9.658350 -11.368760 -16.224752 2.721187 43.420187 15.290500 -10.704990 -30.322090 -13.231304 -35.473529 13.970167 -10.785473 -6.791362 -6.597340 27.049318 -23.585978 -7.000002 -3.477826 3.052951 0.585700 -0.191070 0.122550 0.236060 5.851057 45.906213 -0.105418 21.406586 50.159235 -1.514126 -35.243232 72.023308 -23.054058 2.053821 -0.074177 -0.096080 0.618030 0.091890 0.057280 
-0.301780 17.317900 -3.392330 0.628166 19.080294 -7.025626 -14.136569 11.165455 2.482065 0.822201 -0.668166 -4.758747 -10.654783 6.056059 11.521996 -0.584644 4.029373 3.242547 0.655820 0.678900 0.048320 19.312874 -12.572510 3.142146 -11.600726 4.321977 -14.054340 19.221507 -12.819076 32.824580 -1.093944 -6.925784 1.787975 0.495470 0.260380 0.080010 -7.044444 4.790427 -8.295118 27.164091 -4.424791 26.878969 -20.525266 1.242435 27.766884 5.812450 -9.873956 -11.592544 -16.806853 2.823631 43.383002 15.710870 -11.088690 -30.129620 -13.343980 -35.709010 14.279454 -10.928524 -6.872957 -6.086212 27.001205 -20.604405 -6.335306 -3.503270 3.059031 0.580430 -0.190860 0.113290 0.238550 5.909429 46.230182 -0.078447 20.906140 49.905033 -1.496979 -39.903257 72.682524 -26.030193 2.078399 0.040135 -0.097000 0.618540 0.099660 0.066810 
-0.294790 17.310940 -3.388710 0.725307 19.381666 -7.217725 -14.139646 11.164499 2.476130 0.827094 -0.614948 -4.521970 -10.781341 6.141754 11.628062 -0.561706 4.072686 3.230704 0.642820 0.661440 0.035660 19.314180 -12.560397 3.132506 -11.769343 4.390840 -13.998381 19.225200 -12.939382 33.213807 -1.100821 -6.987896 1.768578 0.481430 0.265910 0.079110 -7.054648 4.771655 -8.294350 27.211637 -4.527011 26.854156 -20.789798 1.236856 27.968690 5.822166 -10.012636 -11.898255 -17.296993 2.866484 43.507405 16.054260 -11.415640 -29.996000 -13.514736 -35.936187 14.513656 -11.121943 -6.950508 -5.717464 26.954619 -18.191245 -5.818957 -3.522408 3.063887 0.577590 -0.193870 0.108580 0.238100 6.040214 46.502505 0.105369 20.513827 49.644105 -1.716503 -43.029886 73.122235 -28.079213 2.097578 0.121821 -0.095530 0.615590 0.104930 0.073480 
-0.288080 17.305620 -3.386350 0.775532 19.631282 -7.407442 -14.145230 11.179272 2.473277 0.829065 -0.570577 -4.338332 -10.800041 6.202194 11.760772 -0.545370 4.102471 3.221989 0.629630 0.643300 0.026260 19.309382 -12.547171 3.127653 -11.856389 4.473825 -13.926775 19.194699 -13.024299 33.564591 -1.107140 -7.033721 1.755561 0.466970 0.267200 0.077410 -7.051627 4.729526 -8.296663 27.243663 -4.618462 26.923874 -20.958687 1.234033 28.064608 5.830826 -10.096403 -12.234603 -17.709610 2.890193 43.736095 16.343680 -11.658300 -29.973980 -13.767715 -36.159575 14.705497 -11.365180 -6.979714 -5.478936 26.979862 -16.307702 -5.444602 -3.536414 3.064585 0.580490 -0.198780 0.107360 0.235620 6.237464 46.769036 0.344268 20.192728 49.354134 -2.119435 -44.411136 73.499446 -29.062479 2.106074 0.167008 -0.096230 0.612830 0.109730 0.076390 
